<?xml version="1.0" encoding="UTF-8"?>
<svg id="Layer_2" data-name="Layer 2" xmlns="http://www.w3.org/2000/svg" viewBox="0 0 2000 2000">
  <defs>
    <style>
      .cls-1 {
        fill: #ff61f6;
      }

      .cls-1, .cls-2 {
        fill-rule: evenodd;
      }

      .cls-2 {
        fill: #420030;
      }
    </style>
  </defs>
  <path class="cls-2" d="M395.31,0h1210.13c216.93,0,394.56,177.63,394.56,394.56v1210.88c0,216.93-177.63,394.56-394.56,394.56H395.31C177.63,2000,0,1822.37,0,1605.44V394.56C0,177.63,177.63,0,395.31,0h0Z"/>
  <polygon class="cls-1" points="298.56 575.21 505.67 575.21 678 893.42 851.1 575.21 1043.84 575.21 790.63 993.95 1063.49 1436.13 842.78 1436.13 667.42 1108.84 489.04 1436.13 284.96 1436.13 550.26 1005.29 298.56 575.21"/>
  <path class="cls-1" d="M1499.62,503.4s179.89-1.51,179.89,0-3.78,893.42,0,893.42c1.51,0-352.23,148.9-530.61-53.67-129.25-146.64-89.95-396.07,68.03-506.42,83.14-58.2,183.67-70.29,284.2-61.22l-1.51-272.11ZM1499.62,925.93v363.57c-66.52,14.36-145.12,3.78-191.99-44.6-71.05-74.07-64.25-217.69,21.92-284.2,80.88-61.98,170.07-34.77,170.07-34.77h0Z"/>
</svg>