<?xml version="1.0" encoding="UTF-8"?>
<svg id="_Ńëîé_1" data-name="Ńëîé 1" xmlns="http://www.w3.org/2000/svg" viewBox="0 0 1239.26 1210.59">
  <defs>
    <style>
      .cls-1 {
        fill: #43091f;
      }

      .cls-2 {
        fill: #e94869;
      }
    </style>
  </defs>
  <path class="cls-1" d="M222.56,0h794.13c122.84,0,222.56,99.73,222.56,222.56v765.47c0,122.84-99.73,222.56-222.56,222.56H222.56c-122.84,0-222.56-99.73-222.56-222.56V222.56C0,99.73,99.73,0,222.56,0Z"/>
  <g>
    <rect class="cls-2" x="327.73" y="355.75" width="118.58" height="548.61"/>
    <path class="cls-2" d="M792.95,306.23v168.1h-72.4c-101.67,0-184.09,82.42-184.09,184.09v61.85c0,101.67,82.42,184.09,184.09,184.09h72.4s117.28-9.04,118.58-44.31V306.23h-118.58ZM792.95,806.63h-44.23c-55.46,0-100.42-44.96-100.42-100.42v-33.72c0-55.46,44.96-100.42,100.42-100.42h44.23v234.56Z"/>
  </g>
</svg>