<?xml version="1.0" encoding="UTF-8"?>
<svg id="svg3476" xmlns="http://www.w3.org/2000/svg" viewBox="0 0 423.8 414">
  <defs>
    <style>
      .cls-1 {
        fill: #264de4;
      }

      .cls-2 {
        fill: #fff;
      }

      .cls-3 {
        fill: #ebebeb;
      }

      .cls-4 {
        fill: #2965f1;
      }
    </style>
  </defs>
  <rect class="cls-2" width="423.8" height="414" rx="76.11" ry="76.11"/>
  <g>
    <polygon id="polygon2989" class="cls-1" points="356.52 52.24 330.08 348.4 211.25 381.35 92.74 348.45 66.33 52.24 356.52 52.24"/>
    <polygon id="polygon2991" class="cls-4" points="307.45 329.55 330.04 76.46 211.43 76.46 211.43 356.17 307.45 329.55"/>
    <polygon id="polygon2993" class="cls-3" points="126.88 186.32 130.13 222.65 211.43 222.65 211.43 186.32 126.88 186.32"/>
    <polygon id="polygon2995" class="cls-3" points="211.43 112.79 211.3 112.79 120.33 112.79 123.64 149.12 211.43 149.12 211.43 112.79"/>
    <polygon id="polygon2997" class="cls-3" points="211.43 318.47 211.43 280.67 211.27 280.71 170.81 269.79 168.22 240.81 148.56 240.81 131.75 240.81 136.84 297.86 211.26 318.51 211.43 318.47"/>
    <polygon id="polygon3005" class="cls-2" points="256.04 222.65 251.82 269.77 211.3 280.7 211.3 318.5 285.78 297.86 286.32 291.72 294.86 196.08 295.75 186.32 302.31 112.79 211.3 112.79 211.3 149.12 262.49 149.12 259.19 186.32 211.3 186.32 211.3 222.65 256.04 222.65"/>
  </g>
</svg>