<?xml version="1.0" encoding="UTF-8"?>
<svg id="Vrstva_1" data-name="Vrstva 1" xmlns="http://www.w3.org/2000/svg" viewBox="0 0 423.8 414">
  <defs>
    <style>
      .cls-1 {
        fill: #fff;
      }
    </style>
  </defs>
  <rect class="cls-1" width="423.8" height="414" rx="76.11" ry="76.11"/>
  <g>
    <path d="M177.71,48.95c-15.36,3.41-30.55,8.17-44.79,15.34.33,12.58,1.14,24.63,2.79,36.87-5.53,3.54-11.35,6.59-16.51,10.73-5.25,4.04-10.61,7.9-15.37,12.62-9.5-6.28-19.55-12.18-29.9-17.39-11.16,12.01-21.6,24.98-30.12,39.48,6.7,10.52,13.89,21.09,20.54,29.33v89.04c.16,0,.33,0,.49.02l54.59,5.26c2.86.28,5.1,2.58,5.3,5.44l1.68,24.1,47.62,3.4,3.28-22.24c.43-2.88,2.9-5.02,5.82-5.02h57.59c2.92,0,5.39,2.14,5.81,5.02l3.28,22.24,47.62-3.4,1.68-24.1c.2-2.87,2.44-5.17,5.3-5.44l54.56-5.26c.16-.02.32-.02.49-.02v-7.11h.02v-81.93c7.69-9.68,14.96-20.35,20.54-29.33-8.52-14.51-18.96-27.47-30.12-39.48-10.35,5.21-20.41,11.11-29.9,17.39-4.75-4.72-10.1-8.59-15.36-12.62-5.17-4.15-10.99-7.19-16.51-10.73,1.64-12.24,2.46-24.29,2.79-36.87-14.25-7.17-29.44-11.92-44.8-15.34-6.13,10.31-11.74,21.48-16.63,32.39-5.79-.97-11.61-1.33-17.44-1.4h-.22c-5.84.08-11.66.44-17.45,1.41-4.88-10.92-10.49-22.08-16.63-32.39h-.04ZM134.52,179.2c18.17,0,32.9,14.72,32.9,32.88s-14.73,32.9-32.9,32.9-32.89-14.72-32.89-32.9,14.73-32.88,32.89-32.88h0ZM289.29,179.2c18.16,0,32.89,14.72,32.89,32.88s-14.73,32.9-32.89,32.9-32.9-14.72-32.9-32.9,14.73-32.88,32.9-32.88h0ZM211.9,198.44c5.85,0,10.6,4.31,10.6,9.62v30.28c0,5.31-4.75,9.62-10.6,9.62s-10.59-4.31-10.59-9.62v-30.28c0-5.31,4.74-9.62,10.59-9.62Z"/>
    <g>
      <path d="M310.47,281.49l-1.69,24.22c-.2,2.92-2.53,5.24-5.45,5.45l-58.14,4.15c-.14.01-.28.02-.42.02-2.89,0-5.38-2.12-5.81-5.02l-3.33-22.61h-47.44l-3.33,22.61c-.45,3.04-3.17,5.23-6.23,5.01l-58.14-4.15c-2.92-.21-5.24-2.53-5.45-5.45l-1.69-24.22-49.08-4.73c.02,5.28.09,11.05.09,12.2,0,51.84,65.76,76.75,147.46,77.04h.2c81.7-.29,147.44-25.2,147.44-77.04,0-1.17.07-6.93.1-12.2l-49.07,4.73h-.02Z"/>
      <path d="M159.5,214.03c0,12.06-9.77,21.83-21.84,21.83s-21.84-9.77-21.84-21.83,9.78-21.84,21.84-21.84,21.84,9.78,21.84,21.84"/>
      <path d="M264.3,214.03c0,12.06,9.77,21.83,21.82,21.83s21.84-9.77,21.84-21.83-9.77-21.84-21.84-21.84-21.82,9.78-21.82,21.84"/>
    </g>
  </g>
</svg>