<?xml version="1.0" encoding="UTF-8"?>
<svg id="Layer_1" data-name="Layer 1" xmlns="http://www.w3.org/2000/svg" viewBox="0 0 600 600">
  <path d="M299.95.1c-81.36,0-91.72.34-123.65,1.87s-53.67,6.45-72.69,13.93c-19.7,7.64-36.52,17.83-53.16,34.65-16.65,16.65-26.84,33.46-34.65,53.16-7.47,19.02-12.57,40.93-13.93,72.69-1.36,31.93-1.87,42.12-1.87,123.65s.34,91.55,1.87,123.65c1.53,31.93,6.45,53.67,13.93,72.69,7.64,19.7,17.83,36.52,34.65,53.16,16.65,16.64,33.46,27.01,53.16,34.65,19.02,7.47,40.93,12.4,72.69,13.93,31.93,1.53,42.12,1.87,123.65,1.87s91.55-.34,123.65-1.87c31.93-1.53,53.67-6.45,72.86-13.93,19.7-7.64,36.35-18,52.99-34.65,16.64-16.64,26.84-33.46,34.65-53.16,7.3-19.02,12.4-40.76,13.93-72.69,1.36-31.93,1.87-42.12,1.87-123.65s-.34-91.55-1.87-123.65c-1.53-31.93-6.62-53.67-13.93-72.69-7.64-19.7-18-36.52-34.65-53.16-16.64-16.65-33.29-26.84-53.16-34.65-19.19-7.47-40.93-12.4-72.86-13.93C391.5.44,381.31.1,299.95.1h0ZM273.11,54.11h26.84c80,0,89.51.34,121.1,1.7,29.21,1.36,45.01,6.28,55.71,10.36,13.93,5.44,23.95,11.89,34.48,22.42,10.53,10.53,16.98,20.55,22.42,34.48,4.08,10.53,9,26.5,10.36,55.71,1.36,31.59,1.7,41.1,1.7,121.1s-.34,89.51-1.7,121.1c-1.36,29.21-6.28,45.01-10.36,55.71-5.44,13.93-11.89,23.95-22.42,34.48-10.53,10.53-20.38,16.98-34.48,22.42-10.53,4.08-26.5,9-55.71,10.36-31.59,1.36-41.1,1.7-121.1,1.7s-89.51-.34-121.1-1.7c-29.21-1.36-45.01-6.28-55.71-10.36-13.93-5.44-23.95-11.89-34.48-22.42-10.53-10.53-16.98-20.55-22.42-34.48-4.08-10.53-9-26.5-10.36-55.71-1.36-31.59-1.7-41.1-1.7-121.1s.34-89.51,1.7-121.1c1.36-29.21,6.28-45.01,10.36-55.71,5.44-13.93,11.89-23.95,22.42-34.48s20.55-16.98,34.48-22.42c10.53-4.08,26.5-9,55.71-10.36,27.69-1.36,38.39-1.7,94.27-1.7h0ZM459.95,103.88c-19.87,0-36.01,16.14-36.01,36.01s16.14,36.01,36.01,36.01,36.01-16.14,36.01-36.01c0-19.87-16.14-36.01-36.01-36.01h0ZM299.95,146c-85.09,0-153.88,68.96-153.88,153.88s68.96,153.88,153.88,153.88,153.88-68.96,153.88-153.88-68.79-153.88-153.88-153.88h0ZM299.95,200.01c55.2,0,99.87,44.67,99.87,99.87s-44.67,99.87-99.87,99.87-99.87-44.67-99.87-99.87,44.67-99.87,99.87-99.87Z"/>
</svg>