<?xml version="1.0" encoding="UTF-8"?>
<svg id="Vrstva_1" data-name="Vrstva 1" xmlns="http://www.w3.org/2000/svg" viewBox="0 0 2500 2500">
  <defs>
    <style>
      .cls-1 {
        fill: #fff;
      }
    </style>
  </defs>
  <path class="cls-1" d="M1250,0C559.64,0,0,559.64,0,1250s559.64,1250,1250,1250,1250-559.64,1250-1250C2500,559.64,1940.35,0,1250,0ZM916.5,1854.32h-274.45v-886.67h274.45v886.67ZM777.96,851.53c-89.63,0-162.3-73.26-162.3-163.61s72.67-163.61,162.3-163.61,162.29,73.25,162.29,163.61c0,90.36-72.66,163.61-162.29,163.61ZM1945,1854.32h-273.12v-465.43c0-127.65-48.49-198.91-149.43-198.91-109.86,0-167.25,74.21-167.25,198.91v465.43h-263.23v-886.67h263.23v119.42s79.18-146.47,267.19-146.47,322.61,114.8,322.61,352.29v561.43s0,0,0,0Z"/>
</svg>