<?xml version="1.0" encoding="UTF-8"?>
<svg id="Vrstva_1" data-name="Vrstva 1" xmlns="http://www.w3.org/2000/svg" viewBox="0 0 225 113.48">
  <defs>
    <style>
      .cls-1 {
        fill: #fff;
      }
    </style>
  </defs>
  <path class="cls-1" d="M108.66,24.61C97.72,9.69,80.08,0,60.16,0,26.93,0,0,26.93,0,60.16c0,4.32.51,10.1,1.37,14.16,16.16-12.17,46.45-28.18,65.08-32.32,0,0-50.58,20.23-64.53,50.23,0,0,70.4-79.64,223.08-52.5,0,0-52.88-18.69-116.34-15.12ZM35.33,40.07c4.04-14.09,15.43-23.79,30.81-23.79,9.37,0,17.84,3.83,23.95,10.01-18.57,2.35-36.12,6.21-54.77,13.78ZM95.09,25.71c-7.71-8.59-18.89-13.99-31.34-13.99-20.5,0-37.58,14.64-41.36,34.03-3.67,1.77-7.32,3.67-10.93,5.71C13.57,26.12,34.78,6.2,60.67,6.2c15.84,0,29.92,7.47,38.95,19.07-1.51.13-3.02.28-4.53.44Z"/>
  <path class="cls-1" d="M177.55,94.22c-.88-10.47-11.03-12.2-18.02-5.72,0,0-.67-4.03-4.06-3.81-1.79.12-3.7,1.3-4.55,2.29-1.76,2.04.03,1.92.3,3.43v22.68c.08,0,8.36-.11,8.72-.15l.2-19.31c0-.49.26-.96.68-1.22,1.97-1.24,5.03-1.56,6.66.18.31.34,1.3,1.34,1.3,3.78v16.36l8.96-.02s.2-13.93-.19-18.49Z"/>
  <path class="cls-1" d="M201.76,100.8c.45,7.58,10.04,6.82,15.22,4.68-2.73,6.33-2.85,7.49-7.47,7.9-11.79,1.04-18.96-6.3-16.09-18.14,3.31-13.64,23.28-14.12,24.45-1.03.21,2.33,0,6.59-5.72,6.59h-10.39ZM201.8,95.78c.34.54,6.79.49,7.57-.1,1.23-.93-.17-5-2.04-5.58-3.57-1.11-5.83,2.52-5.54,5.68Z"/>
  <path class="cls-1" d="M63.51,86.81c.27.45-.19,2.02-.39,2.57-1.51,4.07-4.87.83-7.58,1.19-1.69.23-2.76,1.79-1.5,3.22,1.1,1.25,5.27,2.49,6.98,3.56,6.64,4.14,4.69,12.65-2.23,15.21-5.38,1.99-17.8,1.15-12.78-7.37,2.93,1.1,11.25,4.88,11.64-.23.17-2.66-7.65-4.27-9.41-5.6-3.47-2.63-3.74-7.21-1.31-10.66,2.71-3.83,8.55-4.66,12.84-3.58.55.14,3.56,1.38,3.73,1.68Z"/>
  <path class="cls-1" d="M128.69,71.3c5.93-.66,6.65,8.82.8,9.31-6.61.56-6.51-8.68-.8-9.31Z"/>
  <path class="cls-1" d="M104.27,90.86c-2.37-7.64-11.58-7.56-16.82-2.93v-15.36c0-.07-.39-1.26-.44-1.32-.65-.89-8.54.6-8.65,1.07v33.29s0,0,0,0v7.49h8.91l.16-20.29c2.65-1.95,7.63-2.19,8.43,1.77.9,4.42.51,18.17.51,18.17,1.82.07,8.63.05,8.63.05v-17.77c0-1.91-.58-3.64-.74-4.17Z"/>
  <polygon class="cls-1" points="133.45 84.95 124.4 86.57 124.38 104.71 124.38 104.71 124.38 104.88 124.37 113.09 124.38 113.09 130.37 113.09 133.45 113.09 133.45 104.71 133.44 104.71 133.45 84.95"/>
</svg>