<?xml version="1.0" encoding="UTF-8"?>
<svg id="Vrstva_1" data-name="Vrstva 1" xmlns="http://www.w3.org/2000/svg" viewBox="0 0 439.77 653.7">
  <defs>
    <style>
      .cls-1 {
        fill: #fff;
      }
    </style>
  </defs>
  <path class="cls-1" d="M249.47,443.2c24.7-2.9,77.6-6.9,123-32.4,45.4-25.4,59-67.2,65.8-123.5.4-3.2.9-6.3,1.5-9.2-.4-16.6-3.3-27.4-8.7-33.9-9.1-10.9-38.9-8.1-51-8.1s-16,4.2-15.9,16.3c.1,12.1-3.1,58.7-.7,70.2s-1.8,15.1-10.8,16.3c-8.9,1.1-23.3,3.1-23.3-6s9.1-7.1,14.5-13.2.6-48,0-67.9c-.6-20-13.9-15.7-36.9-14.5s-40,0-58.7,0-23.1,14.7-23.1,27.4-.4,31.9-.4,54.9,16.2,24.2,28.3,15.7c12.1-8.5,12.3-21.3,10.3-30.5-3.2-14.7-10.7-14.3-17.4-16.1-6.7-1.8-16.2-12.7-2.9-27.8,13.3-15.1,32.3-18.8,43.8-11.4,11.5,7.4,17.6,10.8,32.1,2.3,14.5-8.5,16.9,8.5,10.9,14.5s-16.9,12.7-15.1,23.6,4.2,27.8-10.9,35.7c-8.2,4.3-17.6.6-29.1,13.2s-4.8,20.7-10.3,35.2c-5.4,14.5-16.1,20-29.5,21.8-13.3,1.8-10.9,20.6-7.2,33.9,3,10.3,10.9,12.6,21.7,13.5"/>
  <path class="cls-1" d="M95.47,268.1c-19-.3-20.6-17-29.5-14.4-6.6,2-4.4,11.6,3.8,24.2,8.3,12.6,14.6,17.5,27.2,17.5s21.5-10,27.5-21.7,5.5-19.3-.7-20.3c-8.5-1.5-9.8,15.1-28.3,14.7"/>
  <path class="cls-1" d="M171.77,385.1c-9.7-9.1-21.6-23.6-12.5-50.8,9.1-27.2,22.8-40,39.2-41.2,16.3-1.2,12.2-7.7,12.9-33.8.4-16.6-15.3-17.2-25.6-17.2s-16.3-.5-21.8,8c-5.4,8.5-1.4,18.8-29.8,62.3-28.5,43.6-52.7,23.5-67.8,4.7-15.1-18.8-27.6-36.1-32.4-57.3-4.8-21.2-9.7-23.2-15.7-23.2-4.6,0-6.1-3.1-13.4,4.8-7.1,7.6-4.6,7.4-3.7,39.6.1,1,.1,2.1.1,3.2.1,3.4.6,11.3,1.6,22.7,4.7,52.4,34.6,70.4,59.5,89.2,26.5,20,56.2,46.1,101.8,46.1,28.5,0,40.7-2.6,44.3-11,3.6-8.5,2.1-22.7-2.2-30.6-4.4-8-24.8-6.4-34.5-15.5"/>
  <path class="cls-1" d="M86.77,224.3c.9,7.1-11,2.6-21.8,4.6-10.8,1.9-22.9,2-12.5-12.1,10.4-14.1,32-10.6,34.3,7.5"/>
  <path class="cls-1" d="M108.87,223.5c-.9,7.4,10.5,2.6,20.9,4.6,10.4,1.9,22,1.9,12-12.6-9.9-14.6-30.6-10.8-32.9,8"/>
  <path class="cls-1" d="M173.67,137.6c-1-10.7,2.2-15.6,12.5-17.5,10.3-1.8,22.4.6,20.9,14.5-1.5,13.9-6.6,14.8-14.8,17.2-8.2,2.5-17.8-5-18.6-14.2"/>
  <path class="cls-1" d="M206.77,170c-.8-8.3,1.7-12.2,9.7-13.6,8-1.4,17.5.5,16.3,11.3-1.2,10.9-5.2,11.5-11.5,13.4-6.4,1.9-13.8-4-14.5-11.1"/>
  <path class="cls-1" d="M203.67,72.6c12.7-8.5,6.7-24.8,6.4-39.3,1.1-30.6-13.7-31.4-44.6-31.8-67.7,0-91.8,29-121.6,61C18.97,89.2,6.07,126.7,4.07,139.9c-.3,9.7-3.8,29.4-4,46.1-.6,36.9,4.1,40,18.1,38.2,13.9-1.8,7.3-11.6,1.8-22.4s2.4-12.7,18.2-13.3c15.7-.6,87.8-.6,116.8.6,29.1,1.2,25.4,9.1,23.6,15.7-1.8,6.7-3.6,9.7-6.1,19.4-2.4,9.7,13.3,7.2,27.2,7.8s12.7-4.8,10.5-24.8-21.4-17-34.1-30.3c-12.7-13.3-22.4-33.3-15.1-59.9,7.2-26.7,29.9-35.9,42.7-44.4"/>
  <path class="cls-1" d="M265.77,73.1c-1-10.7,2.2-15.6,12.5-17.5,10.3-1.8,22.4.6,20.9,14.5s-6.6,14.8-14.8,17.2c-8.2,2.5-17.7-5-18.6-14.2"/>
  <path class="cls-1" d="M235.07,137.4c-.9-9.3,1.9-13.6,10.8-15.1,8.9-1.6,19.4.5,18.1,12.6-1.3,12.1-5.7,12.8-12.8,14.9-7.1,2.1-15.4-4.5-16.1-12.4"/>
  <path class="cls-1" d="M214.37,114.8c-8.4-4.1-10.7-8.7-7.4-17.2,3.3-8.5,10.6-16.4,20.3-9,9.7,7.5,8,11.6,6.1,18.8-1.9,7.2-11.8,10.9-19,7.4"/>
  <path class="cls-1" d="M437.27,168.7v-3c0-6-.2-12.7-.5-20.3-4.1-65.1-22.5-65.9-44.3-91.4C369.47,27.2,331.17,2.2,290.27.5c-28,0-37.4-1.2-51.7,0-14.5,1.2-12.7,17.1-12.1,34.7.6,17.6-1.1,27.7,5.4,30.3,13.9,5.4,27.6-20,48.8-24.8,21.2-4.8,35.1,7.3,36.3,25.4,1.2,18.2-17.6,35.1-23.6,44-6.1,8.9-10.9,16.6-14.5,32.9s-9.7,22.4-18.2,36.3c-8.5,13.9-17.1,13.3-27.8,16.9-10.7,3.6-12.1,20.5-.6,27.9,10.9,7,26.4,2.7,44.2,2.4,45.6-.8,49.4-21.8,57.3-31.5s13.3-22.4,13.3-32.7-7.3-6.6-15.7-6.6-23.6-.4-24.2-7.6c-.6-7.3,9.7-8.2,24.8-8.2s13.8,1.2,15.8-6.7c1.9-7.9-9.8-4-13.3-20-1.6-7.3,1.2-25.4,20-24.8s25.3,11.9,22.8,25.8c-2.9,16.6-16.7,11.2-18,19.6-1.2,8.5,14.5,5.4,22.4,5.4s23-3,23,7.3-21.1,7.3-32.6,6.7-10.9,7.3-9.1,20.6,12.6,23,24.7,35.7,11.6,15.4,20.8,14.8c27.2-1.5,27.4-28.2,28.7-50.6,0-1.5.1-3.2.1-5h0"/>
  <g>
    <path class="cls-1" d="M419.51,649.26c.96,2.64,3.47,4.43,6.23,4.43h7.43c2.16,0,4.07-1.08,5.39-2.76,1.2-1.8,1.56-3.95.84-5.99l-23.13-66.38,22.89-59.67c.72-2.04.48-4.31-.72-6.11-1.2-1.8-3.24-2.88-5.39-2.88h-7.31c-2.76,0-5.15,1.68-6.11,4.31l-29.6,78.13v-75.85c0-1.68-.72-3.47-1.92-4.67s-2.88-1.92-4.67-1.92h-6.95c-1.68,0-3.47.72-4.67,1.92s-1.92,2.88-1.92,4.67v130.61c0,1.68.72,3.47,1.92,4.67s2.88,1.92,4.67,1.92h6.95c2.76,0,5.15-1.68,6.23-4.31l15.58-41.7,14.26,41.58Z"/>
    <path class="cls-1" d="M104.01,645.42h0c6.11,5.63,14.38,8.39,23.37,8.27,8.99,0,17.25-2.64,23.37-8.27h0c6.95-6.35,9.95-15.7,9.95-26.24v-104.37c0-1.68-.72-3.47-1.92-4.67s-2.88-1.92-4.67-1.92h-6.95c-1.68,0-3.47.72-4.67,1.92s-1.92,2.88-1.92,4.67v104.37c0,6.23-1.44,9.59-3.47,11.62-2.04,1.8-4.91,2.88-9.71,2.88-5.15,0-8.03-1.2-9.59-2.88-2.04-1.92-3.59-5.39-3.59-11.62v-104.37c0-1.68-.72-3.47-1.92-4.67s-2.88-1.92-4.67-1.92h-6.95c-1.68,0-3.47.72-4.67,1.92s-1.92,2.88-1.92,4.67v104.37c-.12,10.54,3,19.89,9.95,26.24Z"/>
    <path class="cls-1" d="M243.17,645.42c6.95-6.35,9.95-15.7,9.95-26.24v-9.11c0-9.47-2.4-18.09-7.43-25.28s-12.46-12.7-21.69-16.78h-.12c-2.64-1.08-5.27-2.4-7.91-4.07-1.68-1.08-4.07-3.24-6.47-6.83-1.92-2.76-3-6.59-3-12.1v-3.71c0-3.12.36-5.51,1.08-7.43.72-1.92,1.56-3.12,2.64-4.19h.12c1.68-1.56,4.43-2.76,9.59-2.88,5.15,0,7.91,1.32,9.35,2.76l.24.24c1.08.96,1.92,2.16,2.52,4.07.6,1.8,1.08,4.31,1.08,7.55v12.7c0,1.68.72,3.47,1.92,4.67s2.88,1.92,4.67,1.92h6.95c1.8,0,3.36-.72,4.67-1.92s1.92-2.88,1.92-4.67v-12.7c0-10.54-3-19.89-9.95-26.24h0c-6.11-5.63-14.26-8.27-23.37-8.27s-17.37,2.64-23.37,8.27c-6.95,6.47-10.19,15.82-10.07,26.24v3.71c0,6.11.84,11.62,2.52,16.66,1.68,4.91,4.43,9.35,8.27,12.7,6.11,5.63,12.46,9.71,18.93,12.22h0c3.59,1.44,7.67,4.07,11.98,8.15,3,2.88,5.03,7.43,5.03,15.34v9.11c0,3.12-.36,5.63-1.08,7.55-.72,1.8-1.44,3.12-2.52,4.07h-.12c-1.92,1.68-4.67,2.88-9.47,2.88-5.15,0-8.03-1.2-9.59-2.88l-.12-.12c-1.08-1.08-1.92-2.28-2.64-4.19-.6-1.92-1.08-4.31-1.08-7.43v-19.05c0-1.68-.72-3.47-1.92-4.67s-2.88-1.92-4.67-1.92h-6.95c-1.68,0-3.47.72-4.67,1.92s-1.92,2.88-1.92,4.67v19.05c0,10.54,3.12,19.89,10.07,26.24,5.99,5.75,14.26,8.39,23.37,8.27,8.87.12,17.13-2.64,23.25-8.27h0Z"/>
    <path class="cls-1" d="M343.92,510.15c-1.2-1.2-2.88-1.92-4.67-1.92h-6.95c-1.68,0-3.47.72-4.67,1.92s-1.92,2.88-1.92,4.67v104.37c0,3.12-.36,5.51-1.08,7.43-.72,1.92-1.56,3.12-2.64,4.19l-.12.12c-1.68,1.56-4.43,2.76-9.59,2.88-5.27,0-7.91-1.2-9.35-2.76l-.24-.24c-1.08-.96-1.92-2.16-2.52-4.07-.6-1.8-1.08-4.31-1.08-7.55v-18.09c0-1.68-.72-3.47-1.92-4.67s-2.88-1.92-4.67-1.92h-6.95c-1.68,0-3.47.72-4.67,1.92s-1.92,2.88-1.92,4.67v18.09c0,10.54,3,19.89,9.95,26.24h0c6.11,5.63,14.26,8.27,23.37,8.27s17.25-2.64,23.37-8.27h0c6.95-6.47,10.19-15.82,10.07-26.24v-104.37c.12-1.68-.6-3.36-1.8-4.67Z"/>
    <path class="cls-1" d="M207.73,509.67l10.18,8.91,14.15-8.79,10.3-14.86c1.44-2.04,1.56-4.67.48-6.83-1.2-2.16-3.36-3.47-5.87-3.47h-5.03c-1.92,0-3.71.84-4.91,2.16l-7.07,7.91-7.19-8.03c-1.2-1.44-3-2.16-4.91-2.16h-5.03c-2.52,0-4.67,1.32-5.87,3.47s-.96,4.79.48,6.83l10.3,14.86Z"/>
    <path class="cls-1" d="M63.17,633.57H26.27l42.9-114.79c.72-2.04.48-4.31-.72-6.11-1.2-1.8-3.24-2.88-5.39-2.88h-16.06,0s-41.31-.01-41.31-.01c-1.35.23-2.68.86-3.63,1.81-1.2,1.2-1.92,2.88-1.92,4.67v6.95c0,1.68.72,3.47,1.92,4.67s2.88,1.92,4.67,1.92h36.91L.51,644.59c-.84,2.16-.6,4.43.72,6.23,1.2,1.8,3.24,2.88,5.39,2.88h56.56c1.8,0,3.36-.72,4.67-1.92,1.32-1.2,1.92-2.88,1.92-4.67v-6.95c0-1.68-.72-3.47-1.92-4.67s-2.88-1.92-4.67-1.92Z"/>
  </g>
</svg>