<?xml version="1.0" encoding="utf-8"?>
<!-- Generator: Adobe Illustrator 27.1.1, SVG Export Plug-In . SVG Version: 6.00 Build 0)  -->
<svg version="1.1" xmlns="http://www.w3.org/2000/svg" xmlns:xlink="http://www.w3.org/1999/xlink" x="0px" y="0px"
	 viewBox="0 0 572.6 790.4" style="enable-background:new 0 0 572.6 790.4;" xml:space="preserve">
<style type="text/css">
	.st0{display:none;}
	.st1{display:inline;}
	.st2{fill:#FFFFFF;}
	.st3{fill:#FFFFFF;stroke:#FFFFFF;stroke-width:11;stroke-linejoin:round;stroke-miterlimit:10;}
	.st4{font-family:'Bison-Regular';}
	.st5{font-size:155.7351px;}
	.st6{letter-spacing:12;}
</style>
<g id="Vrstva_1" class="st0">
	<g class="st1">
		<path class="st2" d="M315.2,443.2c24.7-2.9,77.6-6.9,123-32.4c45.4-25.4,59-67.2,65.8-123.5c0.4-3.2,0.9-6.3,1.5-9.2
			c-0.4-16.6-3.3-27.4-8.7-33.9c-9.1-10.9-38.9-8.1-51-8.1c-12.1,0-16,4.2-15.9,16.3c0.1,12.1-3.1,58.7-0.7,70.2
			c2.4,11.5-1.8,15.1-10.8,16.3c-8.9,1.1-23.3,3.1-23.3-6c0-9.1,9.1-7.1,14.5-13.2c5.4-6.1,0.6-48,0-67.9
			c-0.6-20-13.9-15.7-36.9-14.5c-23,1.2-40,0-58.7,0c-18.8,0-23.1,14.7-23.1,27.4c0,12.7-0.4,31.9-0.4,54.9
			c0,23,16.2,24.2,28.3,15.7c12.1-8.5,12.3-21.3,10.3-30.5c-3.2-14.7-10.7-14.3-17.4-16.1c-6.7-1.8-16.2-12.7-2.9-27.8
			c13.3-15.1,32.3-18.8,43.8-11.4c11.5,7.4,17.6,10.8,32.1,2.3c14.5-8.5,16.9,8.5,10.9,14.5c-6.1,6.1-16.9,12.7-15.1,23.6
			c1.8,10.9,4.2,27.8-10.9,35.7c-8.2,4.3-17.6,0.6-29.1,13.2s-4.8,20.7-10.3,35.2c-5.4,14.5-16.1,20-29.5,21.8
			c-13.3,1.8-10.9,20.6-7.2,33.9C296.5,440,304.4,442.3,315.2,443.2"/>
		<path class="st2" d="M161.2,268.1c-19-0.3-20.6-17-29.5-14.4c-6.6,2-4.4,11.6,3.8,24.2c8.3,12.6,14.6,17.5,27.2,17.5
			c12.6,0,21.5-10,27.5-21.7c6-11.7,5.5-19.3-0.7-20.3C181,251.9,179.7,268.5,161.2,268.1"/>
		<path class="st2" d="M237.5,385.1c-9.7-9.1-21.6-23.6-12.5-50.8c9.1-27.2,22.8-40,39.2-41.2c16.3-1.2,12.2-7.7,12.9-33.8
			c0.4-16.6-15.3-17.2-25.6-17.2c-10.3,0-16.3-0.5-21.8,8c-5.4,8.5-1.4,18.8-29.8,62.3c-28.5,43.6-52.7,23.5-67.8,4.7
			c-15.1-18.8-27.6-36.1-32.4-57.3c-4.8-21.2-9.7-23.2-15.7-23.2c-4.6,0-6.1-3.1-13.4,4.8c-7.1,7.6-4.6,7.4-3.7,39.6
			c0.1,1,0.1,2.1,0.1,3.2c0.1,3.4,0.6,11.3,1.6,22.7c4.7,52.4,34.6,70.4,59.5,89.2c26.5,20,56.2,46.1,101.8,46.1
			c28.5,0,40.7-2.6,44.3-11c3.6-8.5,2.1-22.7-2.2-30.6C267.6,392.6,247.2,394.2,237.5,385.1"/>
		<path class="st2" d="M152.5,224.3c0.9,7.1-11,2.6-21.8,4.6c-10.8,1.9-22.9,2-12.5-12.1C128.6,202.7,150.2,206.2,152.5,224.3"/>
		<path class="st2" d="M174.6,223.5c-0.9,7.4,10.5,2.6,20.9,4.6c10.4,1.9,22,1.9,12-12.6C197.6,200.9,176.9,204.7,174.6,223.5"/>
		<path class="st2" d="M239.4,137.6c-1-10.7,2.2-15.6,12.5-17.5c10.3-1.8,22.4,0.6,20.9,14.5c-1.5,13.9-6.6,14.8-14.8,17.2
			C249.8,154.3,240.2,146.8,239.4,137.6"/>
		<path class="st2" d="M272.5,170c-0.8-8.3,1.7-12.2,9.7-13.6c8-1.4,17.5,0.5,16.3,11.3c-1.2,10.9-5.2,11.5-11.5,13.4
			C280.6,183,273.2,177.1,272.5,170"/>
		<path class="st2" d="M269.4,72.6c12.7-8.5,6.7-24.8,6.4-39.3c1.1-30.6-13.7-31.4-44.6-31.8c-67.7,0-91.8,29-121.6,61
			c-24.9,26.7-37.8,64.2-39.8,77.4c-0.3,9.7-3.8,29.4-4,46.1c-0.6,36.9,4.1,40,18.1,38.2c13.9-1.8,7.3-11.6,1.8-22.4
			s2.4-12.7,18.2-13.3c15.7-0.6,87.8-0.6,116.8,0.6c29.1,1.2,25.4,9.1,23.6,15.7c-1.8,6.7-3.6,9.7-6.1,19.4
			c-2.4,9.7,13.3,7.2,27.2,7.8c13.9,0.6,12.7-4.8,10.5-24.8c-2.2-20-21.4-17-34.1-30.3c-12.7-13.3-22.4-33.3-15.1-59.9
			C233.9,90.3,256.6,81.1,269.4,72.6"/>
		<g>
			<path class="st2" d="M331.5,73.1c-1-10.7,2.2-15.6,12.5-17.5c10.3-1.8,22.4,0.6,20.9,14.5c-1.5,13.9-6.6,14.8-14.8,17.2
				C341.9,89.8,332.4,82.3,331.5,73.1"/>
			<path class="st2" d="M300.8,137.4c-0.9-9.3,1.9-13.6,10.8-15.1c8.9-1.6,19.4,0.5,18.1,12.6s-5.7,12.8-12.8,14.9
				C309.8,151.9,301.5,145.3,300.8,137.4"/>
			<path class="st2" d="M280.1,114.8c-8.4-4.1-10.7-8.7-7.4-17.2c3.3-8.5,10.6-16.4,20.3-9c9.7,7.5,8,11.6,6.1,18.8
				C297.2,114.6,287.3,118.3,280.1,114.8"/>
			<path class="st2" d="M503,168.7c0-1,0-2,0-3c0-6-0.2-12.7-0.5-20.3C498.4,80.3,480,79.5,458.2,54C435.2,27.2,396.9,2.2,356,0.5
				c-28,0-37.4-1.2-51.7,0c-14.5,1.2-12.7,17.1-12.1,34.7c0.6,17.6-1.1,27.7,5.4,30.3c13.9,5.4,27.6-20,48.8-24.8
				c21.2-4.8,35.1,7.3,36.3,25.4c1.2,18.2-17.6,35.1-23.6,44c-6.1,8.9-10.9,16.6-14.5,32.9c-3.6,16.3-9.7,22.4-18.2,36.3
				c-8.5,13.9-17.1,13.3-27.8,16.9c-10.7,3.6-12.1,20.5-0.6,27.9c10.9,7,26.4,2.7,44.2,2.4c45.6-0.8,49.4-21.8,57.3-31.5
				c7.9-9.7,13.3-22.4,13.3-32.7c0-10.3-7.3-6.6-15.7-6.6c-8.5,0-23.6-0.4-24.2-7.6c-0.6-7.3,9.7-8.2,24.8-8.2s13.8,1.2,15.8-6.7
				c1.9-7.9-9.8-4-13.3-20c-1.6-7.3,1.2-25.4,20-24.8c18.8,0.6,25.3,11.9,22.8,25.8c-2.9,16.6-16.7,11.2-18,19.6
				c-1.2,8.5,14.5,5.4,22.4,5.4s23-3,23,7.3c0,10.3-21.1,7.3-32.6,6.7c-11.5-0.6-10.9,7.3-9.1,20.6c1.8,13.3,12.6,23,24.7,35.7
				c12.1,12.7,11.6,15.4,20.8,14.8c27.2-1.5,27.4-28.2,28.7-50.6C502.9,172.2,503,170.5,503,168.7C503,168.7,503,168.7,503,168.7"/>
		</g>
	</g>
	<text transform="matrix(1 0 0 1 0.7495 622.9346)" class="st1"><tspan x="0" y="0" class="st3 st4 st5 st6">Ukaž svůj </tspan><tspan x="96.2" y="162" class="st3 st4 st5 st6">talent!</tspan></text>
</g>
<g id="Vrstva_1_kopie">
	<g>
		<g>
			<path class="st2" d="M315.2,443.2c24.7-2.9,77.6-6.9,123-32.4c45.4-25.4,59-67.2,65.8-123.5c0.4-3.2,0.9-6.3,1.5-9.2
				c-0.4-16.6-3.3-27.4-8.7-33.9c-9.1-10.9-38.9-8.1-51-8.1c-12.1,0-16,4.2-15.9,16.3c0.1,12.1-3.1,58.7-0.7,70.2
				c2.4,11.5-1.8,15.1-10.8,16.3c-8.9,1.1-23.3,3.1-23.3-6c0-9.1,9.1-7.1,14.5-13.2c5.4-6.1,0.6-48,0-67.9
				c-0.6-20-13.9-15.7-36.9-14.5c-23,1.2-40,0-58.7,0c-18.8,0-23.1,14.7-23.1,27.4c0,12.7-0.4,31.9-0.4,54.9
				c0,23,16.2,24.2,28.3,15.7c12.1-8.5,12.3-21.3,10.3-30.5c-3.2-14.7-10.7-14.3-17.4-16.1c-6.7-1.8-16.2-12.7-2.9-27.8
				c13.3-15.1,32.3-18.8,43.8-11.4c11.5,7.4,17.6,10.8,32.1,2.3c14.5-8.5,16.9,8.5,10.9,14.5c-6.1,6.1-16.9,12.7-15.1,23.6
				c1.8,10.9,4.2,27.8-10.9,35.7c-8.2,4.3-17.6,0.6-29.1,13.2s-4.8,20.7-10.3,35.2c-5.4,14.5-16.1,20-29.5,21.8
				c-13.3,1.8-10.9,20.6-7.2,33.9C296.5,440,304.4,442.3,315.2,443.2"/>
			<path class="st2" d="M161.2,268.1c-19-0.3-20.6-17-29.5-14.4c-6.6,2-4.4,11.6,3.8,24.2c8.3,12.6,14.6,17.5,27.2,17.5
				c12.6,0,21.5-10,27.5-21.7c6-11.7,5.5-19.3-0.7-20.3C181,251.9,179.7,268.5,161.2,268.1"/>
			<path class="st2" d="M237.5,385.1c-9.7-9.1-21.6-23.6-12.5-50.8c9.1-27.2,22.8-40,39.2-41.2c16.3-1.2,12.2-7.7,12.9-33.8
				c0.4-16.6-15.3-17.2-25.6-17.2c-10.3,0-16.3-0.5-21.8,8c-5.4,8.5-1.4,18.8-29.8,62.3c-28.5,43.6-52.7,23.5-67.8,4.7
				c-15.1-18.8-27.6-36.1-32.4-57.3c-4.8-21.2-9.7-23.2-15.7-23.2c-4.6,0-6.1-3.1-13.4,4.8c-7.1,7.6-4.6,7.4-3.7,39.6
				c0.1,1,0.1,2.1,0.1,3.2c0.1,3.4,0.6,11.3,1.6,22.7c4.7,52.4,34.6,70.4,59.5,89.2c26.5,20,56.2,46.1,101.8,46.1
				c28.5,0,40.7-2.6,44.3-11c3.6-8.5,2.1-22.7-2.2-30.6C267.6,392.6,247.2,394.2,237.5,385.1"/>
			<path class="st2" d="M152.5,224.3c0.9,7.1-11,2.6-21.8,4.6c-10.8,1.9-22.9,2-12.5-12.1C128.6,202.7,150.2,206.2,152.5,224.3"/>
			<path class="st2" d="M174.6,223.5c-0.9,7.4,10.5,2.6,20.9,4.6c10.4,1.9,22,1.9,12-12.6C197.6,200.9,176.9,204.7,174.6,223.5"/>
			<path class="st2" d="M239.4,137.6c-1-10.7,2.2-15.6,12.5-17.5c10.3-1.8,22.4,0.6,20.9,14.5c-1.5,13.9-6.6,14.8-14.8,17.2
				C249.8,154.3,240.2,146.8,239.4,137.6"/>
			<path class="st2" d="M272.5,170c-0.8-8.3,1.7-12.2,9.7-13.6c8-1.4,17.5,0.5,16.3,11.3c-1.2,10.9-5.2,11.5-11.5,13.4
				C280.6,183,273.2,177.1,272.5,170"/>
			<path class="st2" d="M269.4,72.6c12.7-8.5,6.7-24.8,6.4-39.3c1.1-30.6-13.7-31.4-44.6-31.8c-67.7,0-91.8,29-121.6,61
				c-24.9,26.7-37.8,64.2-39.8,77.4c-0.3,9.7-3.8,29.4-4,46.1c-0.6,36.9,4.1,40,18.1,38.2c13.9-1.8,7.3-11.6,1.8-22.4
				s2.4-12.7,18.2-13.3c15.7-0.6,87.8-0.6,116.8,0.6c29.1,1.2,25.4,9.1,23.6,15.7c-1.8,6.7-3.6,9.7-6.1,19.4
				c-2.4,9.7,13.3,7.2,27.2,7.8c13.9,0.6,12.7-4.8,10.5-24.8c-2.2-20-21.4-17-34.1-30.3c-12.7-13.3-22.4-33.3-15.1-59.9
				C233.9,90.3,256.6,81.1,269.4,72.6"/>
			<g>
				<path class="st2" d="M331.5,73.1c-1-10.7,2.2-15.6,12.5-17.5c10.3-1.8,22.4,0.6,20.9,14.5c-1.5,13.9-6.6,14.8-14.8,17.2
					C341.9,89.8,332.4,82.3,331.5,73.1"/>
				<path class="st2" d="M300.8,137.4c-0.9-9.3,1.9-13.6,10.8-15.1c8.9-1.6,19.4,0.5,18.1,12.6s-5.7,12.8-12.8,14.9
					C309.8,151.9,301.5,145.3,300.8,137.4"/>
				<path class="st2" d="M280.1,114.8c-8.4-4.1-10.7-8.7-7.4-17.2c3.3-8.5,10.6-16.4,20.3-9c9.7,7.5,8,11.6,6.1,18.8
					C297.2,114.6,287.3,118.3,280.1,114.8"/>
				<path class="st2" d="M503,168.7c0-1,0-2,0-3c0-6-0.2-12.7-0.5-20.3C498.4,80.3,480,79.5,458.2,54C435.2,27.2,396.9,2.2,356,0.5
					c-28,0-37.4-1.2-51.7,0c-14.5,1.2-12.7,17.1-12.1,34.7c0.6,17.6-1.1,27.7,5.4,30.3c13.9,5.4,27.6-20,48.8-24.8
					c21.2-4.8,35.1,7.3,36.3,25.4c1.2,18.2-17.6,35.1-23.6,44c-6.1,8.9-10.9,16.6-14.5,32.9c-3.6,16.3-9.7,22.4-18.2,36.3
					c-8.5,13.9-17.1,13.3-27.8,16.9c-10.7,3.6-12.1,20.5-0.6,27.9c10.9,7,26.4,2.7,44.2,2.4c45.6-0.8,49.4-21.8,57.3-31.5
					c7.9-9.7,13.3-22.4,13.3-32.7c0-10.3-7.3-6.6-15.7-6.6c-8.5,0-23.6-0.4-24.2-7.6c-0.6-7.3,9.7-8.2,24.8-8.2s13.8,1.2,15.8-6.7
					c1.9-7.9-9.8-4-13.3-20c-1.6-7.3,1.2-25.4,20-24.8c18.8,0.6,25.3,11.9,22.8,25.8c-2.9,16.6-16.7,11.2-18,19.6
					c-1.2,8.5,14.5,5.4,22.4,5.4s23-3,23,7.3c0,10.3-21.1,7.3-32.6,6.7c-11.5-0.6-10.9,7.3-9.1,20.6c1.8,13.3,12.6,23,24.7,35.7
					c12.1,12.7,11.6,15.4,20.8,14.8c27.2-1.5,27.4-28.2,28.7-50.6C502.9,172.2,503,170.5,503,168.7C503,168.7,503,168.7,503,168.7"
					/>
			</g>
		</g>
		<g>
			<path class="st2" d="M50,508.4h-5.8c-1.4,0-2.9,0.6-3.9,1.6c-1,1-1.6,2.4-1.6,3.9V601c0,5.2-1.3,8-2.9,9.7
				c-1.7,1.5-4.1,2.4-8.1,2.4c-4.3,0-6.7-1-8-2.4c-1.7-1.6-3-4.5-3-9.7v-87.1c0-1.4-0.6-2.9-1.6-3.9c-1-1-2.4-1.6-3.9-1.6H5.5
				c-1.4,0-2.9,0.6-3.9,1.6c-1,1-1.6,2.4-1.6,3.9V601c0,8.8,2.5,16.6,8.3,21.9l0,0c5.1,4.7,11.9,6.9,19.5,6.9
				c7.5,0,14.4-2.2,19.5-6.9l0,0c5.7-5.3,8.3-13.1,8.3-21.9v-87.1c0-1.4-0.6-2.9-1.6-3.9C52.9,509,51.5,508.4,50,508.4z"/>
			<path class="st2" d="M109.8,624.7c0.8,2.2,2.9,3.7,5.2,3.7h6.2c1.8,0,3.4-0.9,4.5-2.3c1-1.5,1.3-3.3,0.7-5l-19.3-55.4l19.1-49.8
				c0.6-1.7,0.4-3.6-0.6-5.1c-1-1.5-2.7-2.4-4.5-2.4H115c-2.3,0-4.3,1.4-5.1,3.6l-24.7,65.2l0-63.3c0-1.4-0.6-2.9-1.6-3.9
				c-1-1-2.4-1.6-3.9-1.6h-5.8c-1.4,0-2.9,0.6-3.9,1.6c-1,1-1.6,2.4-1.6,3.9v109c0,1.4,0.6,2.9,1.6,3.9c1,1,2.4,1.6,3.9,1.6h5.8
				c2.3,0,4.3-1.4,5.2-3.6l13-34.8L109.8,624.7z"/>
			<path class="st2" d="M458.7,622.9L458.7,622.9c5.1,4.7,12,7,19.5,6.9c7.5,0,14.4-2.2,19.5-6.9l0,0c5.8-5.3,8.3-13.1,8.3-21.9
				v-87.1c0-1.4-0.6-2.9-1.6-3.9c-1-1-2.4-1.6-3.9-1.6h-5.8c-1.4,0-2.9,0.6-3.9,1.6s-1.6,2.4-1.6,3.9V601c0,5.2-1.2,8-2.9,9.7
				c-1.7,1.5-4.1,2.4-8.1,2.4c-4.3,0-6.7-1-8-2.4c-1.7-1.6-3-4.5-3-9.7v-87.1c0-1.4-0.6-2.9-1.6-3.9c-1-1-2.4-1.6-3.9-1.6h-5.8
				c-1.4,0-2.9,0.6-3.9,1.6s-1.6,2.4-1.6,3.9V601C450.3,609.8,452.9,617.6,458.7,622.9z"/>
			<path class="st2" d="M478.3,513.5c3.9,0.1,7.8-1.5,10.5-4.3c2.8-2.7,4.4-6.6,4.3-10.5c0.1-3.9-1.5-7.8-4.3-10.5
				c-2.7-2.9-6.6-4.5-10.6-4.5c-3.9-0.1-7.9,1.6-10.6,4.5c-2.7,2.8-4.3,6.6-4.3,10.5c-0.1,3.9,1.5,7.8,4.3,10.5
				C470.5,512,474.4,513.6,478.3,513.5z"/>
			<path class="st2" d="M208.6,626.1c1,1.5,2.7,2.4,4.5,2.4h47.2c1.5,0,2.8-0.6,3.9-1.6s1.6-2.4,1.6-3.9v-5.8c0-1.4-0.6-2.9-1.6-3.9
				c-1-1-2.4-1.6-3.9-1.6h-30.8l35.8-95.8c0.6-1.7,0.4-3.6-0.6-5.1c-1-1.5-2.7-2.4-4.5-2.4h-13.4l8.6-12.4c1.2-1.7,1.3-3.9,0.4-5.7
				c-1-1.8-2.8-2.9-4.9-2.9h-4.2c-1.6,0-3.1,0.7-4.1,1.8l-5.9,6.6l-6-6.7c-1-1.2-2.5-1.8-4.1-1.8h-4.2c-2.1,0-3.9,1.1-4.9,2.9
				c-1,1.8-0.8,4,0.4,5.7l8.6,12.4h-13.3c-1.4,0-2.9,0.6-3.9,1.6s-1.6,2.4-1.6,3.9v5.8c0,1.4,0.6,2.9,1.6,3.9c1,1,2.4,1.6,3.9,1.6
				h30.8l-36,95.8C207.3,622.7,207.5,624.6,208.6,626.1z"/>
			<path class="st2" d="M139.7,628.4h5.9c2.6,0,4.8-1.8,5.4-4.3l5.3-24.3h21.2l5.3,24.3c0.5,2.5,2.8,4.3,5.4,4.3h5.9
				c1.7,0,3.2-0.8,4.3-2.1c1-1.3,1.4-3,1.1-4.6l-24.3-109c-0.6-2.5-2.8-4.3-5.4-4.3H164c-2.6,0-4.8,1.8-5.4,4.3l-24.3,109
				c-0.4,1.6,0,3.3,1.1,4.6C136.5,627.7,138.1,628.4,139.7,628.4z M160.1,583l6.8-31.2l6.8,31.2H160.1z"/>
			<path class="st2" d="M359.8,622.9c5.8-5.3,8.3-13.1,8.3-21.9v-7.6c0-7.9-2-15.1-6.2-21.1c-4.2-6-10.4-10.6-18.1-14l-0.1,0
				c-2.2-0.9-4.4-2-6.6-3.4c-1.4-0.9-3.4-2.7-5.4-5.7c-1.6-2.3-2.5-5.5-2.5-10.1v-3.1c0-2.6,0.3-4.6,0.9-6.2
				c0.6-1.6,1.3-2.6,2.2-3.5l0.1,0c1.4-1.3,3.7-2.3,8-2.4c4.3,0,6.6,1.1,7.8,2.3l0.2,0.2c0.9,0.8,1.6,1.8,2.1,3.4
				c0.5,1.5,0.9,3.6,0.9,6.3v10.6c0,1.4,0.6,2.9,1.6,3.9c1,1,2.4,1.6,3.9,1.6h5.8c1.5,0,2.8-0.6,3.9-1.6s1.6-2.4,1.6-3.9v-10.6
				c0-8.8-2.5-16.6-8.3-21.9l0,0c-5.1-4.7-11.9-6.9-19.5-6.9c-7.6,0-14.5,2.2-19.5,6.9c-5.8,5.4-8.5,13.2-8.4,21.9v3.1
				c0,5.1,0.7,9.7,2.1,13.9c1.4,4.1,3.7,7.8,6.9,10.6c5.1,4.7,10.4,8.1,15.8,10.2l0,0c3,1.2,6.4,3.4,10,6.8
				c2.5,2.4,4.2,6.2,4.2,12.8v7.6c0,2.6-0.3,4.7-0.9,6.3c-0.6,1.5-1.2,2.6-2.1,3.4l-0.1,0c-1.6,1.4-3.9,2.4-7.9,2.4
				c-4.3,0-6.7-1-8-2.4l-0.1-0.1c-0.9-0.9-1.6-1.9-2.2-3.5c-0.5-1.6-0.9-3.6-0.9-6.2v-15.9c0-1.4-0.6-2.9-1.6-3.9
				c-1-1-2.4-1.6-3.9-1.6h-5.8c-1.4,0-2.9,0.6-3.9,1.6s-1.6,2.4-1.6,3.9V601c0,8.8,2.6,16.6,8.4,21.9c5,4.8,11.9,7,19.5,6.9
				C347.8,629.9,354.7,627.6,359.8,622.9L359.8,622.9z"/>
			<path class="st2" d="M320.9,622.9C320.8,622.9,320.8,622.9,320.9,622.9C320.8,622.9,320.8,622.9,320.9,622.9L320.9,622.9z"/>
			<path class="st2" d="M440.4,510.5c-1-1.3-2.6-2.1-4.3-2.1h-5.9c-2.6,0-4.8,1.8-5.4,4.3L409,585.2l-15.8-72.4
				c-0.6-2.5-2.8-4.3-5.4-4.3h-5.9c-1.7,0-3.2,0.8-4.3,2.1c-1,1.3-1.4,3-1.1,4.6l24.1,109c0.6,2.5,2.8,4.3,5.4,4.3h5.9
				c2.6,0,4.8-1.8,5.4-4.3l24.1-109C441.8,513.5,441.4,511.8,440.4,510.5z"/>
			<path class="st2" d="M571,510c-1-1-2.4-1.6-3.9-1.6h-5.8c-1.4,0-2.9,0.6-3.9,1.6s-1.6,2.4-1.6,3.9V601c0,2.6-0.3,4.6-0.9,6.2
				c-0.6,1.6-1.3,2.6-2.2,3.5l-0.1,0.1c-1.4,1.3-3.7,2.3-8,2.4c-4.4,0-6.6-1-7.8-2.3l-0.2-0.2c-0.9-0.8-1.6-1.8-2.1-3.4
				c-0.5-1.5-0.9-3.6-0.9-6.3v-15.1c0-1.4-0.6-2.9-1.6-3.9c-1-1-2.4-1.6-3.9-1.6h-5.8c-1.4,0-2.9,0.6-3.9,1.6s-1.6,2.4-1.6,3.9V601
				c0,8.8,2.5,16.6,8.3,21.9l0,0c5.1,4.7,11.9,6.9,19.5,6.9c7.5,0,14.4-2.2,19.5-6.9l0,0c5.8-5.4,8.5-13.2,8.4-21.9v-87.1
				C572.6,512.5,572,511.1,571,510z"/>
			<path class="st2" d="M320.8,514C320.8,514,320.8,514,320.8,514C320.8,513.9,320.8,513.9,320.8,514L320.8,514z"/>
			<path class="st2" d="M504.5,773.6c-1.7-1.7-4.3-3-6.9-2.9c-2.6,0-5.3,1.2-6.9,2.9c-1.7,1.7-3,4.3-2.9,6.9
				c-0.1,2.6,1.2,5.3,2.9,6.9c1.7,1.7,4.3,3,6.9,2.9c2.6,0.1,5.3-1.2,6.9-2.9c1.7-1.7,3-4.3,2.9-6.9
				C507.5,778,506.3,775.3,504.5,773.6L504.5,773.6z"/>
			<path class="st2" d="M472.7,670.4h-47c-1.4,0-2.9,0.6-3.9,1.6s-1.6,2.4-1.6,3.9v5.8c0,1.4,0.6,2.9,1.6,3.9c1,1,2.4,1.6,3.9,1.6
				h15.1l0,97.8c0,1.4,0.6,2.9,1.6,3.9c1,1,2.4,1.6,3.9,1.6h5.8c1.5,0,2.8-0.6,3.9-1.6s1.6-2.4,1.6-3.9v-97.8h15.2
				c1.5,0,2.8-0.6,3.9-1.6s1.6-2.4,1.6-3.9v-5.8c0-1.4-0.6-2.9-1.6-3.9C475.6,671,474.1,670.4,472.7,670.4z"/>
			<path class="st2" d="M194.2,674.7c-0.6-2.5-2.8-4.3-5.4-4.3H183c-2.6,0-4.8,1.8-5.4,4.3l-24.3,109c-0.4,1.6,0,3.3,1.1,4.6
				c1,1.3,2.6,2.1,4.3,2.1h5.9c2.6,0,4.8-1.8,5.4-4.3l5.3-24.3h21.2l5.3,24.3c0.5,2.5,2.8,4.3,5.4,4.3h5.9c1.7,0,3.2-0.8,4.3-2.1
				c1-1.3,1.4-3,1.1-4.6L194.2,674.7z M186,713.8l6.8,31.2h-13.6L186,713.8z"/>
			<path class="st2" d="M155.5,681.7v-5.8c0-1.4-0.6-2.9-1.6-3.9c-1-1-2.4-1.6-3.9-1.6h-47c-1.4,0-2.9,0.6-3.9,1.6
				c-1,1-1.6,2.4-1.6,3.9v5.8c0,1.4,0.6,2.9,1.6,3.9c1,1,2.4,1.6,3.9,1.6H118v97.8c0,1.4,0.6,2.9,1.6,3.9c1,1,2.4,1.6,3.9,1.6h5.8
				c1.5,0,2.8-0.6,3.9-1.6s1.6-2.4,1.6-3.9v-97.8H150c1.5,0,2.8-0.6,3.9-1.6S155.5,683.2,155.5,681.7z"/>
			<path class="st2" d="M273.5,773.7h-27.8v-97.8c0-1.4-0.6-2.9-1.6-3.9c-1-1-2.4-1.6-3.9-1.6h-5.8c-1.4,0-2.9,0.6-3.9,1.6
				s-1.6,2.4-1.6,3.9v109c0,1.4,0.6,2.9,1.6,3.9c1,1,2.4,1.6,3.9,1.6h39.1c1.5,0,2.8-0.6,3.9-1.6s1.6-2.4,1.6-3.9v-5.8
				c0-1.4-0.6-2.9-1.6-3.9C276.4,774.3,275,773.7,273.5,773.7z"/>
			<path class="st2" d="M404.2,670.4h-5.8c-1.4,0-2.9,0.6-3.9,1.6s-1.6,2.4-1.6,3.9v61.5l-26.8-63.7c-0.9-2-2.9-3.4-5.1-3.4h-3.1
				c-1.4,0-2.9,0.6-3.9,1.6s-1.6,2.4-1.6,3.9v109c0,1.4,0.6,2.9,1.6,3.9c1,1,2.4,1.6,3.9,1.6h5.8c1.5,0,2.8-0.6,3.9-1.6
				s1.6-2.4,1.6-3.9v-61.5l26.8,63.7c0.9,2,2.9,3.4,5.1,3.4h3.1c1.5,0,2.8-0.6,3.9-1.6s1.6-2.4,1.6-3.9v-109c0-1.4-0.6-2.9-1.6-3.9
				C407,671,405.6,670.4,404.2,670.4z"/>
			<path class="st2" d="M334.1,670.4H295c-1.4,0-2.9,0.6-3.9,1.6s-1.6,2.4-1.6,3.9v109c0,1.4,0.6,2.9,1.6,3.9c1,1,2.4,1.6,3.9,1.6
				h39.1c1.5,0,2.8-0.6,3.9-1.6s1.6-2.4,1.6-3.9v-5.8c0-1.4-0.6-2.9-1.6-3.9c-1-1-2.4-1.6-3.9-1.6h-27.8v-36.2l18,0
				c1.5,0,2.8-0.6,3.9-1.6s1.6-2.4,1.6-3.9v-5.8c0-1.4-0.6-2.9-1.6-3.9c-1-1-2.4-1.6-3.9-1.6h-18v-33.5h27.8c1.5,0,2.8-0.6,3.9-1.6
				s1.6-2.4,1.6-3.9v-5.8c0-1.4-0.6-2.9-1.6-3.9C337,671,335.5,670.4,334.1,670.4z"/>
			<path class="st2" d="M500.4,670.4h-5.8c-1.4,0-2.9,0.6-3.9,1.6s-1.6,2.4-1.6,3.9v54.7l0,0.1l0.8,33.5c0.1,3,2.5,5.4,5.5,5.4h4.4
				c3,0,5.4-2.4,5.5-5.4l0.6-33.5v-0.1v-54.7c0-1.4-0.6-2.9-1.6-3.9C503.3,671,501.9,670.4,500.4,670.4z"/>
		</g>
	</g>
</g>
</svg>
